HIERARCHY
ROOT joint_Root
{
	OFFSET 0.0 0.0 0.0
	CHANNELS 6 Xposition Yposition Zposition Zrotation Xrotation Yrotation 
	JOINT Hips
	{
		OFFSET -17.1583 93.1646 452.98
		CHANNELS 6 Xposition Yposition Zposition Zrotation Xrotation Yrotation 
		JOINT Spine
		{
			OFFSET 15.7357 0.0 0.0
			CHANNELS 6 Xposition Yposition Zposition Zrotation Xrotation Yrotation 
			JOINT Chest
			{
				OFFSET 8.98455 -0.406207 0.0
				CHANNELS 6 Xposition Yposition Zposition Zrotation Xrotation Yrotation 
				JOINT Neck
				{
					OFFSET 16.3773 0.0 0.0
					CHANNELS 6 Xposition Yposition Zposition Zrotation Xrotation Yrotation 
					JOINT Head
					{
						OFFSET 6.45672 0.0 0.0
						CHANNELS 6 Xposition Yposition Zposition Zrotation Xrotation Yrotation 
						End Site
						{
							OFFSET 0.0 0.0 0.0
						}
					}
				}
				JOINT Shoulder_L
				{
					OFFSET 12.9942 -0.242716 4.98039
					CHANNELS 6 Xposition Yposition Zposition Zrotation Xrotation Yrotation 
					JOINT UpperArm_L
					{
						OFFSET 5.34809 0.0 0.0
						CHANNELS 6 Xposition Yposition Zposition Zrotation Xrotation Yrotation 
						JOINT LowerArm_L
						{
							OFFSET 24.3286 1.87007e-05 0.0
							CHANNELS 6 Xposition Yposition Zposition Zrotation Xrotation Yrotation 
							JOINT Hand_L
							{
								OFFSET 22.2916 0.0 0.0
								CHANNELS 6 Xposition Yposition Zposition Zrotation Xrotation Yrotation 
								End Site
								{
									OFFSET 0.0 0.0 0.0
								}
							}
						}
					}
				}
				JOINT Shoulder_R
				{
					OFFSET 12.9945 -0.242716 -4.98039
					CHANNELS 6 Xposition Yposition Zposition Zrotation Xrotation Yrotation 
					JOINT UpperArm_R
					{
						OFFSET -5.34813 0.0 0.0
						CHANNELS 6 Xposition Yposition Zposition Zrotation Xrotation Yrotation 
						JOINT LowerArm_R
						{
							OFFSET -24.3289 0.000322201 0.0
							CHANNELS 6 Xposition Yposition Zposition Zrotation Xrotation Yrotation 
							JOINT Hand_R
							{
								OFFSET -22.2915 -0.000108084 0.0
								CHANNELS 6 Xposition Yposition Zposition Zrotation Xrotation Yrotation 
								End Site
								{
									OFFSET 0.0 0.0 0.0
								}
							}
						}
					}
				}
			}
		}
		JOINT UpperLeg_L
		{
			OFFSET -2.19248 -6.46944 0.0
			CHANNELS 6 Xposition Yposition Zposition Zrotation Xrotation Yrotation 
			JOINT LowerLeg_L
			{
				OFFSET 39.0811 0.0 -1.23785e-05
				CHANNELS 6 Xposition Yposition Zposition Zrotation Xrotation Yrotation 
				JOINT Foot_L
				{
					OFFSET 40.9854 0.0 -1.26872e-05
					CHANNELS 6 Xposition Yposition Zposition Zrotation Xrotation Yrotation 
					JOINT Toes_L
					{
						OFFSET 11.7543 0.0 0.0
						CHANNELS 6 Xposition Yposition Zposition Zrotation Xrotation Yrotation 
						End Site
						{
							OFFSET 0.0 0.0 0.0
						}
					}
				}
			}
		}
		JOINT UpperLeg_R
		{
			OFFSET -2.19251 6.46944 0.0
			CHANNELS 6 Xposition Yposition Zposition Zrotation Xrotation Yrotation 
			JOINT LowerLeg_R
			{
				OFFSET -39.0811 -0.00228153 -0.0401928
				CHANNELS 6 Xposition Yposition Zposition Zrotation Xrotation Yrotation 
				JOINT Foot_R
				{
					OFFSET -40.9854 0.0 0.0
					CHANNELS 6 Xposition Yposition Zposition Zrotation Xrotation Yrotation 
					JOINT Toes_R
					{
						OFFSET -11.7543 0.0 0.0
						CHANNELS 6 Xposition Yposition Zposition Zrotation Xrotation Yrotation 
						End Site
						{
							OFFSET 0.0 0.0 0.0
						}
					}
				}
			}
		}
	}
}
MOTION
Frames:	5
Frame Time:	0.0333333
0.000000 0.000000 0.000000 0.000000 0.000000 -0.000000 -5.678450 91.374800 -0.941087 83.332900 2.055850 7.358470 15.735700 0.000005 -0.000001 80.909400 85.545400 -79.483100 8.984550 -0.406207 -0.000000 1.051770 -1.490550 2.864190 16.377300 -0.000001 -0.000001 11.758000 0.672638 4.877840 6.456720 -0.000001 -0.000000 -6.039010 -2.193120 16.494000 12.994200 -0.242716 4.980390 -93.102700 8.748460 -70.384400 5.348090 -0.000007 -0.000001 -69.282400 29.510300 -1.875590 24.328600 0.000019 0.000005 12.072800 27.731400 -24.685400 22.291600 -0.000001 0.000005 -5.447440 5.098910 5.138630 12.994500 -0.242716 -4.980390 86.590300 8.631460 -68.347300 -5.348130 -0.000001 -0.000004 -68.907500 -13.730200 -9.415830 -24.328900 0.000322 -0.000009 6.381720 -6.802880 -136.644000 -22.291500 -0.000108 -0.000004 59.445900 5.629040 -13.302900 -2.192480 -6.469440 -0.000000 -171.436000 6.140060 -2.669380 39.081100 -0.000007 -0.000012 0.477934 -0.776569 31.611200 40.985400 -0.000006 -0.000013 -1.485060 2.330550 -77.887900 11.754300 -0.000000 0.000003 -0.000119 0.169602 -9.697750 -2.192510 6.469440 -0.000001 -169.006000 13.082600 -174.258000 -39.081100 -0.002282 -0.040193 0.161797 -0.524101 16.823700 -40.985400 0.000008 0.000006 7.644330 3.673330 -72.021500 -11.754300 -0.000006 -0.000006 -0.010075 0.271863 -5.528170
0.000000 0.000000 0.000000 0.000000 0.000000 -0.000000 -5.682690 91.378800 -0.951739 83.285500 2.139180 7.372230 15.735700 0.000005 -0.000001 81.003500 85.531100 -79.582000 8.984550 -0.406207 -0.000000 1.082120 -1.479920 2.854740 16.377300 -0.000001 -0.000001 11.729000 0.599287 4.880160 6.456720 -0.000001 -0.000000 -6.040590 -2.335860 16.496500 12.994200 -0.242716 4.980390 -93.086500 8.732640 -70.447300 5.348090 -0.000007 -0.000001 -69.302500 29.550400 -1.870650 24.328600 0.000019 0.000005 11.959700 27.446900 -24.681400 22.291600 -0.000001 0.000005 -5.510020 5.100180 5.109630 12.994500 -0.242716 -4.980390 86.594200 8.595830 -68.288800 -5.348130 -0.000001 -0.000004 -69.408100 -14.374800 -9.760000 -24.328900 0.000322 -0.000009 -0.105982 0.117139 -137.781000 -22.291500 -0.000108 -0.000004 60.488400 5.567190 -9.551600 -2.192480 -6.469440 -0.000000 -171.393000 6.203540 -2.699240 39.081100 -0.000007 -0.000012 0.481056 -0.781115 31.628500 40.985400 -0.000006 -0.000013 -1.483640 2.349590 -77.857200 11.754300 -0.000000 0.000003 -0.000029 0.168113 -9.758220 -2.192510 6.469440 -0.000001 -168.990000 13.236600 -174.206000 -39.081100 -0.002282 -0.040193 0.159151 -0.518423 16.729600 -40.985400 0.000008 0.000006 7.659910 3.776560 -71.993700 -11.754300 -0.000006 -0.000006 -0.009763 0.269529 -5.623620
0.000000 0.000000 0.000000 0.000000 0.000000 -0.000000 -5.670820 91.380300 -0.964620 83.312300 2.177260 7.324440 15.735700 0.000005 -0.000001 80.941300 85.534000 -79.549200 8.984550 -0.406207 -0.000000 1.074540 -1.486970 2.795890 16.377300 -0.000001 -0.000001 11.728500 0.547717 4.854660 6.456720 -0.000001 -0.000000 -6.035290 -2.370230 16.503100 12.994200 -0.242716 4.980390 -93.075300 8.707640 -70.461400 5.348090 -0.000007 -0.000001 -69.330900 29.553900 -1.841380 24.328600 0.000019 0.000005 12.033300 27.560500 -24.736000 22.291600 -0.000001 0.000005 -5.523840 5.100660 5.098480 12.994500 -0.242716 -4.980390 86.597900 8.554840 -68.216800 -5.348130 -0.000001 -0.000004 -70.004300 -15.497600 -10.149200 -24.328900 0.000322 -0.000009 -5.832970 6.536640 -138.097000 -22.291500 -0.000108 -0.000004 60.963400 5.496890 -6.412630 -2.192480 -6.469440 -0.000000 -171.420000 6.222780 -2.752820 39.081100 -0.000007 -0.000012 0.479956 -0.779791 31.613300 40.985400 -0.000006 -0.000013 -1.464900 2.387040 -77.832100 11.754300 -0.000000 0.000003 0.000029 0.167141 -9.797680 -2.192510 6.469440 -0.000001 -168.988000 13.204100 -174.294000 -39.081100 -0.002282 -0.040193 0.160488 -0.521631 16.767100 -40.985400 0.000008 0.000006 7.632690 3.641340 -72.004300 -11.754300 -0.000006 -0.000006 -0.010277 0.273360 -5.466910
0.000000 0.000000 0.000000 0.000000 0.000000 -0.000000 -5.656710 91.384800 -0.963294 83.291900 2.198330 7.336360 15.735700 0.000005 -0.000001 80.621000 85.523100 -79.234500 8.984550 -0.406207 -0.000000 1.088690 -1.539300 2.785470 16.377300 -0.000001 -0.000001 11.768300 0.532652 4.799480 6.456720 -0.000001 -0.000000 -5.954390 -2.361610 16.440600 12.994200 -0.242716 4.980390 -93.082000 8.722440 -70.452600 5.348090 -0.000007 -0.000001 -69.342700 29.514800 -1.746060 24.328600 0.000019 0.000005 11.986100 27.498800 -24.692900 22.291600 -0.000001 0.000005 -5.393040 5.103840 5.025510 12.994500 -0.242716 -4.980390 86.632400 8.442510 -68.159700 -5.348130 -0.000001 -0.000004 -70.489000 -16.378400 -10.441300 -24.328900 0.000322 -0.000009 -8.955710 9.989410 -137.746000 -22.291500 -0.000108 -0.000004 61.158400 5.431950 -4.007600 -2.192480 -6.469440 -0.000000 -171.416000 6.240830 -2.751810 39.081100 -0.000007 -0.000012 0.479345 -0.778840 31.612000 40.985400 -0.000006 -0.000013 -1.472920 2.332830 -77.821000 11.754300 -0.000000 0.000003 -0.000055 0.168549 -9.740530 -2.192510 6.469440 -0.000001 -168.954000 13.100500 -174.265000 -39.081100 -0.002282 -0.040193 0.159694 -0.520657 16.716700 -40.985400 0.000008 0.000006 7.615360 3.578520 -71.963400 -11.754300 -0.000006 -0.000006 -0.010316 0.273648 -5.455140
0.000000 0.000000 0.000000 0.000000 0.000000 -0.000000 -5.627910 91.382200 -0.962952 83.321100 2.185320 7.322250 15.735700 0.000005 -0.000001 80.368600 85.521500 -78.994200 8.984550 -0.406207 -0.000000 1.085590 -1.578040 2.761460 16.377300 -0.000001 -0.000001 11.846000 0.555417 4.725780 6.456720 -0.000001 -0.000000 -5.956360 -2.318170 16.362800 12.994200 -0.242716 4.980390 -93.097900 8.740000 -70.395400 5.348090 -0.000007 -0.000001 -69.339000 29.508900 -1.717880 24.328600 0.000019 0.000005 11.974700 27.629600 -24.576700 22.291600 -0.000001 0.000005 -5.582200 5.104190 5.017360 12.994500 -0.242716 -4.980390 86.676400 8.353370 -68.211900 -5.348130 -0.000001 -0.000004 -70.391700 -16.375700 -10.363400 -24.328900 0.000322 -0.000009 -8.319540 9.232590 -137.654000 -22.291500 -0.000108 -0.000004 61.731100 5.405550 -3.120270 -2.192480 -6.469440 -0.000000 -171.470000 6.235820 -2.744530 39.081100 -0.000007 -0.000012 0.483549 -0.785621 31.613600 40.985400 -0.000006 -0.000013 -1.442880 2.349140 -77.878500 11.754300 -0.000000 0.000003 -0.000081 0.168976 -9.723160 -2.192510 6.469440 -0.000001 -169.047000 13.265700 -174.307000 -39.081100 -0.002282 -0.040193 0.160391 -0.520148 16.802400 -40.985400 0.000008 0.000006 7.615000 3.720660 -72.012800 -11.754300 -0.000006 -0.000006 -0.009939 0.270848 -5.569670
